<svg width="50" height="50" viewBox="0 0 50 50" fill="none" xmlns="http://www.w3.org/2000/svg">
<path d="M25 7.32422C22.5769 7.32422 20.6055 9.29565 20.6055 11.7188C20.6055 14.1418 22.5769 16.1133 25 16.1133C27.4231 16.1133 29.3945 14.1418 29.3945 11.7188C29.3945 9.29565 27.4231 7.32422 25 7.32422Z" fill="black"/>
<path d="M25 0C18.5383 0 13.2812 5.25703 13.2812 11.7188C13.2812 13.9347 13.9034 16.0934 15.081 17.9615L25 33.7891L34.919 17.9615C36.0966 16.0934 36.7188 13.9347 36.7188 11.7188C36.7188 5.25703 31.4617 0 25 0ZM25 19.043C20.9618 19.043 17.6758 15.757 17.6758 11.7188C17.6758 7.68051 20.9618 4.39453 25 4.39453C29.0382 4.39453 32.3242 7.68051 32.3242 11.7188C32.3242 15.757 29.0382 19.043 25 19.043Z" fill="black"/>
<path d="M17.8706 50H32.1242L30.9977 41.1133H18.9689L17.8706 50Z" fill="black"/>
<path d="M19.335 38.1835H24.307L20.1578 31.6028L19.335 38.1835Z" fill="black"/>
<path d="M33.577 38.1836H45.1176L41.4554 29.3945H32.4497L33.577 38.1836Z" fill="black"/>
<path d="M4.88232 38.1836H16.3829L17.4815 29.3945H8.54443L4.88232 38.1836Z" fill="black"/>
<path d="M25.6929 38.1837H30.6222L29.7895 31.6873L25.6929 38.1837Z" fill="black"/>
<path d="M16.0168 41.1133H3.66173L0 50H14.9185L16.0168 41.1133Z" fill="black"/>
<path d="M46.3381 41.1133H33.9521L35.079 50H49.9998L46.3381 41.1133Z" fill="black"/>
</svg>
